<svg width="24" height="24" viewBox="0 0 24 24" fill="none" xmlns="http://www.w3.org/2000/svg">
<path fill-rule="evenodd" clip-rule="evenodd" d="M19.9425 17.7671C19.5762 19.5006 18.038 20.7358 16.261 20.7499C15.9709 20.7659 15.9164 20.9311 15.9254 21.0117C15.9254 21.9718 15.1471 22.75 14.1871 22.75L8.00436 22.75C7.57155 22.7501 7.17471 22.7501 6.8519 22.7067C6.49642 22.6589 6.1207 22.5465 5.81167 22.2374C5.50265 21.9284 5.3902 21.5527 5.34241 21.1972C5.29901 20.8744 5.29905 20.4776 5.29911 20.0447L5.29911 19.8537C5.29911 19.3947 5.29911 19.1652 5.43748 19.0767C5.57585 18.9882 5.79396 19.089 6.23018 19.2906C6.37782 19.3588 6.52736 19.4237 6.6787 19.4851C7.06248 19.641 7.48673 19.4225 7.61445 19.0285C7.74217 18.6345 7.5247 18.2145 7.14286 18.0539C6.60989 17.8299 6.10376 17.5558 5.63053 17.2378C5.51819 17.1623 5.40769 17.0841 5.29911 17.0037C3.14763 15.4102 1.75 12.868 1.75 10C1.75 5.15769 5.72765 1.25 10.6123 1.25C15.2495 1.25 19.0678 4.77057 19.4441 9.27103C19.4494 9.42115 19.4739 9.7398 19.5298 9.81345L21.6583 12.6187C21.8063 12.8131 21.9619 13.0176 22.0662 13.205C22.1862 13.4205 22.3092 13.7348 22.2193 14.1102C22.1298 14.4843 21.8789 14.7091 21.676 14.8475C21.4985 14.9686 21.2675 15.0824 21.0466 15.1912L20.6645 15.3796C20.5348 15.4436 20.47 15.4755 20.4275 15.5307C20.385 15.5859 20.3706 15.6568 20.3418 15.7985L19.9425 17.7671ZM13.5084 9.56811C13.1946 9.29768 13.1595 8.8241 13.4299 8.51035C13.7004 8.1966 14.174 8.16148 14.4877 8.43192L15.4076 9.22481L15.4354 9.24874C15.6042 9.39411 15.7835 9.54855 15.9146 9.69668C16.0629 9.86416 16.248 10.13 16.248 10.5C16.248 10.8701 16.0629 11.1359 15.9146 11.3033C15.7835 11.4515 15.6042 11.6059 15.4354 11.7513L15.4076 11.7752L14.4877 12.5681C14.174 12.8385 13.7004 12.8034 13.4299 12.4897C13.1595 12.1759 13.1946 11.7023 13.5084 11.4319L14.4283 10.639C14.4895 10.5863 14.5422 10.5408 14.5887 10.5C14.5422 10.4592 14.4895 10.4137 14.4283 10.361L13.5084 9.56811ZM7.56614 8.51035C7.83658 8.8241 7.80146 9.29768 7.48771 9.56811L6.5678 10.361C6.50662 10.4137 6.45388 10.4592 6.40736 10.5C6.45388 10.5408 6.50662 10.5863 6.5678 10.639L7.48771 11.4319C7.80146 11.7023 7.83658 12.1759 7.56614 12.4897C7.29571 12.8034 6.82214 12.8385 6.50839 12.5681L5.58848 11.7752L5.5607 11.7513C5.39193 11.6059 5.21261 11.4515 5.08148 11.3033C4.93323 11.1359 4.74805 10.8701 4.74805 10.5C4.74805 10.13 4.93323 9.86416 5.08148 9.69668C5.21261 9.54855 5.39193 9.39411 5.5607 9.24874L5.58848 9.22481L6.50839 8.43192C6.82214 8.16148 7.29571 8.1966 7.56614 8.51035ZM12.1946 8.27874C12.3484 7.89416 12.1614 7.45768 11.7768 7.30384C11.3922 7.15001 10.9557 7.33707 10.8019 7.72166L8.80189 12.7217C8.64805 13.1062 8.83512 13.5427 9.2197 13.6966C9.60429 13.8504 10.0408 13.6633 10.1946 13.2787L12.1946 8.27874Z" fill="#5540F1"/>
</svg>
